<svg width="107" height="40" viewBox="0 0 107 40" fill="none" xmlns="http://www.w3.org/2000/svg">
<g clip-path="url(#clip0_157_96)">
<path d="M16.6585 40H15.3818C12.0654 40 10.0701 39.9994 8.5459 39.7159L17.3669 28.0344L16.6585 40Z" fill="#FBEBE3"/>
<path d="M31.2482 39.7514C29.7502 39.9988 27.7875 40 24.6183 40H23.109L22.397 28.0309L31.2482 39.7514Z" fill="#FBEBE3"/>
<path d="M39.6714 31.6707C39.607 31.9772 39.5312 32.2654 39.4388 32.5425C38.8336 34.3566 37.7711 35.9521 36.3866 37.1981L26.4399 26.0439L39.6714 31.6707Z" fill="#FBEBE3"/>
<path d="M3.4854 37.0792C2.16393 35.8511 1.14735 34.3 0.561036 32.5426C0.459507 32.2382 0.375209 31.921 0.307129 31.5803L13.3239 26.0458L3.4854 37.0792Z" fill="#FBEBE3"/>
<path d="M40 24.6183C40 25.7428 39.9968 26.7154 39.9858 27.5692L28.1729 23.006H40V24.6183Z" fill="#FBEBE3"/>
<path d="M11.5962 23.006L0.0106534 27.4805C0.000706105 26.6481 0 25.704 0 24.6183V23.006H11.5962Z" fill="#FBEBE3"/>
<path d="M0 10C0 4.47715 4.47715 0 10 0H30C35.5228 0 40 4.47715 40 10V20H0V10Z" fill="#FBEBE3"/>
</g>
<path d="M52.14 17V5.3H56.58L58.755 15.02H59.295L61.47 5.3H65.91V17H63.57V7.37H63.18L61.05 17H56.88L54.75 7.37H54.36V17H52.14ZM71.2188 17.18C70.3788 17.18 69.6888 16.98 69.1488 16.58C68.6088 16.17 68.2088 15.61 67.9488 14.9C67.6888 14.19 67.5588 13.385 67.5588 12.485C67.5588 11.555 67.6888 10.74 67.9488 10.04C68.2188 9.34 68.6238 8.795 69.1638 8.405C69.7038 8.015 70.3838 7.82 71.2038 7.82C71.8338 7.82 72.3488 7.945 72.7488 8.195C73.1588 8.435 73.4688 8.76 73.6788 9.17H74.0388V8H76.2888V17H74.0388V15.83H73.6788C73.4688 16.21 73.1638 16.53 72.7638 16.79C72.3638 17.05 71.8488 17.18 71.2188 17.18ZM71.8488 15.47C72.4588 15.47 72.9438 15.205 73.3038 14.675C73.6738 14.135 73.8588 13.41 73.8588 12.5C73.8588 11.58 73.6738 10.855 73.3038 10.325C72.9438 9.795 72.4588 9.53 71.8488 9.53C71.2988 9.53 70.8638 9.78 70.5438 10.28C70.2338 10.77 70.0788 11.51 70.0788 12.5C70.0788 13.49 70.2338 14.235 70.5438 14.735C70.8638 15.225 71.2988 15.47 71.8488 15.47ZM79.0673 20V19.97C79.3173 19.56 79.5873 19.085 79.8773 18.545C80.1673 18.005 80.4223 17.49 80.6423 17L77.5523 8.09V8H79.9523L80.8823 10.7C81.0323 11.13 81.1823 11.59 81.3323 12.08C81.4823 12.57 81.6323 13.19 81.7823 13.94H82.1423C82.2923 13.19 82.4423 12.57 82.5923 12.08C82.7423 11.59 82.8923 11.13 83.0423 10.7L83.9723 8H86.2523V8.09L83.4923 15.77C83.1323 16.78 82.7823 17.64 82.4423 18.35C82.1123 19.07 81.8323 19.62 81.6023 20H79.0673ZM92.6423 17.18C91.9723 17.18 91.4373 17.05 91.0373 16.79C90.6373 16.53 90.3323 16.21 90.1223 15.83H89.7623V17H87.5123V5H89.9423V8.99H90.3023C90.5223 8.63 90.8223 8.345 91.2023 8.135C91.5823 7.925 92.0623 7.82 92.6423 7.82C93.4423 7.82 94.1073 8.015 94.6373 8.405C95.1773 8.795 95.5773 9.34 95.8373 10.04C96.1073 10.74 96.2423 11.555 96.2423 12.485C96.2423 13.385 96.1123 14.19 95.8523 14.9C95.5923 15.61 95.1973 16.17 94.6673 16.58C94.1373 16.98 93.4623 17.18 92.6423 17.18ZM91.9523 15.47C92.5023 15.47 92.9323 15.225 93.2423 14.735C93.5623 14.235 93.7223 13.49 93.7223 12.5C93.7223 11.51 93.5623 10.77 93.2423 10.28C92.9323 9.78 92.5023 9.53 91.9523 9.53C91.3423 9.53 90.8523 9.795 90.4823 10.325C90.1223 10.855 89.9423 11.58 89.9423 12.5C89.9423 13.41 90.1223 14.135 90.4823 14.675C90.8523 15.205 91.3423 15.47 91.9523 15.47ZM101.631 17.225C100.211 17.225 99.1259 16.8 98.3759 15.95C97.6359 15.1 97.2659 13.945 97.2659 12.485C97.2659 11.505 97.4309 10.665 97.7609 9.965C98.1009 9.265 98.5909 8.725 99.2309 8.345C99.8809 7.965 100.671 7.775 101.601 7.775C102.941 7.775 103.966 8.18 104.676 8.99C105.396 9.8 105.756 10.99 105.756 12.56V13.07H99.6359C99.6859 13.83 99.8809 14.43 100.221 14.87C100.571 15.3 101.041 15.515 101.631 15.515C102.101 15.515 102.476 15.375 102.756 15.095C103.046 14.815 103.236 14.49 103.326 14.12H105.636C105.546 14.67 105.346 15.18 105.036 15.65C104.726 16.12 104.291 16.5 103.731 16.79C103.171 17.08 102.471 17.225 101.631 17.225ZM99.6359 11.54H103.386C103.346 10.86 103.176 10.335 102.876 9.965C102.576 9.585 102.146 9.395 101.586 9.395C101.036 9.395 100.591 9.575 100.251 9.935C99.9209 10.285 99.7159 10.82 99.6359 11.54ZM52.14 37V25.3H59.85V27.28H54.63V29.935H58.59V31.765H54.63V37H52.14ZM64.493 37.225C63.003 37.225 61.888 36.8 61.148 35.95C60.418 35.09 60.053 33.94 60.053 32.5C60.053 31.06 60.418 29.915 61.148 29.065C61.888 28.205 63.003 27.775 64.493 27.775C65.983 27.775 67.093 28.205 67.823 29.065C68.563 29.915 68.933 31.06 68.933 32.5C68.933 33.94 68.563 35.09 67.823 35.95C67.093 36.8 65.983 37.225 64.493 37.225ZM64.493 35.605C65.153 35.605 65.638 35.345 65.948 34.825C66.258 34.305 66.413 33.525 66.413 32.485C66.413 31.455 66.258 30.685 65.948 30.175C65.638 29.655 65.153 29.395 64.493 29.395C63.833 29.395 63.348 29.655 63.038 30.175C62.728 30.685 62.573 31.455 62.573 32.485C62.573 33.525 62.728 34.305 63.038 34.825C63.348 35.345 63.833 35.605 64.493 35.605ZM73.4595 37.225C72.4595 37.225 71.7045 36.91 71.1945 36.28C70.6845 35.65 70.4295 34.795 70.4295 33.715V28H72.8595V33.31C72.8595 33.92 72.9695 34.395 73.1895 34.735C73.4095 35.075 73.7645 35.245 74.2545 35.245C74.8445 35.245 75.2995 35.015 75.6195 34.555C75.9395 34.095 76.0995 33.53 76.0995 32.86V28H78.5295V37H76.3395V35.65H75.9795C75.8295 36.1 75.5545 36.475 75.1545 36.775C74.7545 37.075 74.1895 37.225 73.4595 37.225ZM80.7448 37V28H82.9948V29.35H83.3548C83.5348 28.9 83.8098 28.525 84.1798 28.225C84.5598 27.925 85.1148 27.775 85.8448 27.775C86.8448 27.775 87.5948 28.09 88.0948 28.72C88.5948 29.35 88.8448 30.205 88.8448 31.285V37H86.4148V31.69C86.4148 31.07 86.3048 30.595 86.0848 30.265C85.8648 29.925 85.5048 29.755 85.0048 29.755C84.4248 29.755 83.9748 29.985 83.6548 30.445C83.3348 30.895 83.1748 31.46 83.1748 32.14V37H80.7448ZM93.9401 37.18C93.1201 37.18 92.4451 36.98 91.9151 36.58C91.3851 36.17 90.9901 35.61 90.7301 34.9C90.4701 34.19 90.3401 33.385 90.3401 32.485C90.3401 31.555 90.4701 30.74 90.7301 30.04C91.0001 29.34 91.4001 28.795 91.9301 28.405C92.4701 28.015 93.1401 27.82 93.9401 27.82C94.5301 27.82 95.0101 27.925 95.3801 28.135C95.7601 28.345 96.0601 28.63 96.2801 28.99H96.6401V25H99.0701V37H96.8201V35.83H96.4601C96.2501 36.21 95.9451 36.53 95.5451 36.79C95.1451 37.05 94.6101 37.18 93.9401 37.18ZM94.6301 35.47C95.2401 35.47 95.7251 35.205 96.0851 34.675C96.4551 34.135 96.6401 33.41 96.6401 32.5C96.6401 31.58 96.4551 30.855 96.0851 30.325C95.7251 29.795 95.2401 29.53 94.6301 29.53C94.0801 29.53 93.6451 29.78 93.3251 30.28C93.0151 30.77 92.8601 31.51 92.8601 32.5C92.8601 33.49 93.0151 34.235 93.3251 34.735C93.6451 35.225 94.0801 35.47 94.6301 35.47Z" fill="#FBEBE3"/>
<defs>
<clipPath id="clip0_157_96">
<rect width="40" height="40" fill="white"/>
</clipPath>
</defs>
</svg>
