<svg width="40" height="40" viewBox="0 0 40 40" fill="none" xmlns="http://www.w3.org/2000/svg">
  <g clip-path="url(#clip0_156_16)">
    <path d="M16.6585 40H15.3818C12.0654 40 10.0701 39.9994 8.5459 39.7159L17.3669 28.0344L16.6585 40Z"
      fill="#FAFAF9" />
    <path d="M31.2482 39.7514C29.7502 39.9988 27.7875 40 24.6183 40H23.109L22.397 28.0309L31.2482 39.7514Z"
      fill="#FAFAF9" />
    <path
      d="M39.6714 31.6707C39.607 31.9772 39.5312 32.2654 39.4388 32.5425C38.8336 34.3566 37.7711 35.9521 36.3866 37.1981L26.4399 26.0439L39.6714 31.6707Z"
      fill="#FAFAF9" />
    <path
      d="M3.4854 37.0792C2.16393 35.8511 1.14735 34.3 0.561036 32.5426C0.459507 32.2382 0.375209 31.921 0.307129 31.5803L13.3239 26.0458L3.4854 37.0792Z"
      fill="#FAFAF9" />
    <path d="M40 24.6183C40 25.7428 39.9968 26.7154 39.9858 27.5692L28.1729 23.006H40V24.6183Z" fill="#FAFAF9" />
    <path d="M11.5962 23.006L0.0106534 27.4805C0.000706105 26.6481 0 25.704 0 24.6183V23.006H11.5962Z" fill="#FAFAF9" />
    <path d="M0 10C0 4.47715 4.47715 0 10 0H30C35.5228 0 40 4.47715 40 10V20H0V10Z" fill="#FAFAF9" />
  </g>
  <defs>
    <clipPath id="clip0_156_16">
      <rect width="40" height="40" fill="white" />
    </clipPath>
  </defs>
</svg>